<?xml version="1.0" encoding="UTF-8"?>
<svg width="150" height="32" viewBox="0 0 150 32" fill="none" xmlns="http://www.w3.org/2000/svg">
  <path d="M15.2 15.2H0V0h15.2v15.2z" fill="currentColor"/>
  <path d="M32 15.2H16.8V0H32v15.2z" fill="currentColor"/>
  <path d="M15.2 32H0V16.8h15.2V32z" fill="currentColor"/>
  <path d="M32 32H16.8V16.8H32V32z" fill="currentColor"/>
  <path d="M71.1 18.7c0-2.3 1.1-4.2 3.3-5.7-1.3-1.8-3.2-2.7-5.7-2.7-2.4 0-4.2.8-5.4 2.3-.3.4-.6.8-.8 1.3V8.5h-4.5v23h4.5v-8.2c0-2.4.6-4.3 1.8-5.7 1.2-1.4 2.8-2.1 4.8-2.1 1.8 0 3.2.6 4.2 1.7 1 1.1 1.5 2.7 1.5 4.7v9.6h4.5v-9.6c0-1.7-.2-3.2-.7-4.5-.5-1.3-1.1-2.3-2-3.1-.9-.8-1.9-1.4-3.1-1.8-1.2-.4-2.5-.6-3.9-.6-2.4 0-4.4.7-6 2.2 1.5 1.2 2.5 2.8 2.5 4.6z" fill="currentColor"/>
  <path d="M97.4 23.7c-1.2 1.4-2.8 2.1-4.8 2.1-1.8 0-3.2-.6-4.2-1.7-1-1.1-1.5-2.7-1.5-4.7v-9.6h-4.5v9.6c0 1.7.2 3.2.7 4.5.5 1.3 1.1 2.3 2 3.1.9.8 1.9 1.4 3.1 1.8 1.2.4 2.5.6 3.9.6 2.4 0 4.4-.7 6-2.2-1.5-1.2-2.5-2.8-2.5-4.6 0 2.3-1.1 4.2-3.3 5.7 1.3 1.8 3.2 2.7 5.7 2.7 2.4 0 4.2-.8 5.4-2.3.3-.4.6-.8.8-1.3v3.8h4.5v-23h-4.5v8.2c0 2.4-.6 4.3-1.8 5.7z" fill="currentColor"/>
  <path d="M122.3 8.5h-4.5v3.1c-.2-.5-.5-.9-.8-1.3-1.2-1.5-3-2.3-5.4-2.3-2.5 0-4.4.9-5.7 2.7 2.2 1.5 3.3 3.4 3.3 5.7 0-2.3 1.1-4.2 3.3-5.7-1.3-1.8-3.2-2.7-5.7-2.7-2.4 0-4.2.8-5.4 2.3-.3.4-.6.8-.8 1.3V8.5h-4.5v23h4.5v-8.2c0-2.4.6-4.3 1.8-5.7 1.2-1.4 2.8-2.1 4.8-2.1 1.8 0 3.2.6 4.2 1.7 1 1.1 1.5 2.7 1.5 4.7v9.6h4.5v-9.6c0-1.7-.2-3.2-.7-4.5-.5-1.3-1.1-2.3-2-3.1-.9-.8-1.9-1.4-3.1-1.8-1.2-.4-2.5-.6-3.9-.6-2.4 0-4.4.7-6 2.2 1.5 1.2 2.5 2.8 2.5 4.6 0-2.3 1.1-4.2 3.3-5.7-1.3-1.8-3.2-2.7-5.7-2.7-2.4 0-4.2.8-5.4 2.3-.3.4-.6.8-.8 1.3V8.5h-4.5v23h4.5v-8.2c0-2.4.6-4.3 1.8-5.7 1.2-1.4 2.8-2.1 4.8-2.1 1.8 0 3.2.6 4.2 1.7 1 1.1 1.5 2.7 1.5 4.7v9.6h4.5v-9.6c0-1.7-.2-3.2-.7-4.5-.5-1.3-1.1-2.3-2-3.1-.9-.8-1.9-1.4-3.1-1.8-1.2-.4-2.5-.6-3.9-.6-2.4 0-4.4.7-6 2.2 1.5 1.2 2.5 2.8 2.5 4.6z" fill="currentColor"/>
  <path d="M150 8.5h-4.5v23h4.5v-23z" fill="currentColor"/>
  <path d="M150 2.5h-4.5v4.5h4.5v-4.5z" fill="currentColor"/>
</svg> 