<?xml version="1.0" encoding="UTF-8"?>
<svg width="160" height="40" viewBox="0 0 160 40" fill="none" xmlns="http://www.w3.org/2000/svg">
  <path d="M28.5 21.2c-.4-.5-1-.8-1.7-.8-.7 0-1.3.3-1.7.8-.4.5-.7 1.2-.7 2s.2 1.5.7 2c.4.5 1 .8 1.7.8.7 0 1.3-.3 1.7-.8.4-.5.7-1.2.7-2s-.2-1.5-.7-2z" fill="currentColor"/>
  <path d="M41.2 17.8c-1.8-1.8-4.2-2.8-6.7-2.8-2.6 0-4.9 1-6.7 2.8-1.8 1.8-2.8 4.2-2.8 6.7 0 2.6 1 4.9 2.8 6.7 1.8 1.8 4.2 2.8 6.7 2.8 2.6 0 4.9-1 6.7-2.8 1.8-1.8 2.8-4.2 2.8-6.7.1-2.5-.9-4.9-2.8-6.7zm-6.7 13.4c-3.7 0-6.7-3-6.7-6.7s3-6.7 6.7-6.7 6.7 3 6.7 6.7-3 6.7-6.7 6.7z" fill="currentColor"/>
  <path d="M83.2 17.8c-1.8-1.8-4.2-2.8-6.7-2.8-2.6 0-4.9 1-6.7 2.8-1.8 1.8-2.8 4.2-2.8 6.7 0 2.6 1 4.9 2.8 6.7 1.8 1.8 4.2 2.8 6.7 2.8 2.6 0 4.9-1 6.7-2.8 1.8-1.8 2.8-4.2 2.8-6.7 0-2.5-1-4.9-2.8-6.7zm-6.7 13.4c-3.7 0-6.7-3-6.7-6.7s3-6.7 6.7-6.7 6.7 3 6.7 6.7-3 6.7-6.7 6.7z" fill="currentColor"/>
  <path d="M125.2 17.8c-1.8-1.8-4.2-2.8-6.7-2.8-2.6 0-4.9 1-6.7 2.8-1.8 1.8-2.8 4.2-2.8 6.7 0 2.6 1 4.9 2.8 6.7 1.8 1.8 4.2 2.8 6.7 2.8 2.6 0 4.9-1 6.7-2.8 1.8-1.8 2.8-4.2 2.8-6.7 0-2.5-1-4.9-2.8-6.7zm-6.7 13.4c-3.7 0-6.7-3-6.7-6.7s3-6.7 6.7-6.7 6.7 3 6.7 6.7-3 6.7-6.7 6.7z" fill="currentColor"/>
</svg> 