<?xml version="1.0" encoding="UTF-8"?>
<svg width="160" height="40" viewBox="0 0 160 40" fill="none" xmlns="http://www.w3.org/2000/svg">
  <path d="M24.8 10.4c-2.7 0-5.2 1-7.1 2.9-1.9 1.9-2.9 4.4-2.9 7.1 0 2.7 1 5.2 2.9 7.1 1.9 1.9 4.4 2.9 7.1 2.9 2.7 0 5.2-1 7.1-2.9 1.9-1.9 2.9-4.4 2.9-7.1 0-2.7-1-5.2-2.9-7.1-1.9-1.9-4.4-2.9-7.1-2.9z" fill="currentColor"/>
  <path d="M55.2 15.6h-3.8v9.2h3.8c2.5 0 4.6-2.1 4.6-4.6s-2.1-4.6-4.6-4.6zm37.9 0c-2.5 0-4.6 2.1-4.6 4.6s2.1 4.6 4.6 4.6 4.6-2.1 4.6-4.6-2.1-4.6-4.6-4.6z" fill="currentColor"/>
  <path d="M142.3 15.6h-3.8v9.2h3.8c2.5 0 4.6-2.1 4.6-4.6s-2.1-4.6-4.6-4.6z" fill="currentColor"/>
</svg> 