<?xml version="1.0" encoding="UTF-8"?>
<svg width="100" height="30" viewBox="0 0 100 30" xmlns="http://www.w3.org/2000/svg">
  <path d="M15 0C6.7 0 0 6.7 0 15s6.7 15 15 15 15-6.7 15-15S23.3 0 15 0zm0 26C8.9 26 4 21.1 4 15S8.9 4 15 4s11 4.9 11 11-4.9 11-11 11z" fill="currentColor"/>
  <circle cx="10" cy="10" r="3" fill="currentColor"/>
  <circle cx="20" cy="10" r="3" fill="currentColor"/>
  <circle cx="10" cy="20" r="3" fill="currentColor"/>
  <circle cx="20" cy="20" r="3" fill="currentColor"/>
  <path d="M45.5 7.5h4v15h-4v-15zm0-6h4v4h-4v-4zm8.8 6h3.8v2.1c1.2-1.6 3-2.5 4.9-2.5 3.6 0 5.7 2.4 5.7 6v9.4h-4v-8.6c0-2.2-.9-3.3-2.9-3.3-2 0-3.6 1.3-3.6 4.2v7.7h-4V7.5zm28.9 15.4c-4.8 0-8.5-3.5-8.5-8 0-4.5 3.7-8 8.5-8s8.5 3.5 8.5 8c0 4.5-3.7 8-8.5 8zm0-12.9c-2.7 0-4.5 2.1-4.5 4.9 0 2.8 1.8 4.9 4.5 4.9s4.5-2.1 4.5-4.9c0-2.8-1.8-4.9-4.5-4.9zm18.6 12.9c-4.8 0-8.5-3.5-8.5-8 0-4.5 3.7-8 8.5-8s8.5 3.5 8.5 8c0 4.5-3.7 8-8.5 8zm0-12.9c-2.7 0-4.5 2.1-4.5 4.9 0 2.8 1.8 4.9 4.5 4.9s4.5-2.1 4.5-4.9c0-2.8-1.8-4.9-4.5-4.9z" fill="currentColor"/>
</svg> 